<svg width="291" height="291" viewBox="0 0 291 291" fill="none" xmlns="http://www.w3.org/2000/svg">
<g clip-path="url(#clip0_1_548)">
<path d="M290.5 0.5H0.5V290.5H290.5V0.5Z" fill="white"/>
<path d="M26.3144 18.625H21.625C19.9681 18.625 18.625 19.9681 18.625 21.625V26.3144H26.3144V18.625Z" fill="#FF0000"/>
<path d="M34.0038 18.625H26.3144V26.3144H34.0038V18.625Z" fill="#FF0000"/>
<path d="M41.6932 18.625H34.0038V26.3144H41.6932V18.625Z" fill="#FF0000"/>
<path d="M49.3826 18.625H41.6932V26.3144H49.3826V18.625Z" fill="#FF0000"/>
<path d="M57.072 18.625H49.3826V26.3144H57.072V18.625Z" fill="#FF0000"/>
<path d="M64.7614 18.625H57.072V26.3144H64.7614V18.625Z" fill="#FF0000"/>
<path d="M72.4508 21.625C72.4508 19.9681 71.1076 18.625 69.4508 18.625H64.7614V26.3144H72.4508V21.625Z" fill="#FF0000"/>
<path d="M87.8296 18.625H83.1402C81.4833 18.625 80.1402 19.9681 80.1402 21.625V23.3144C80.1402 24.9712 81.4833 26.3144 83.1402 26.3144H87.8296V18.625Z" fill="#FF0000"/>
<path d="M95.5189 18.625H87.8296V26.3144H95.5189V18.625Z" fill="#FF0000"/>
<path d="M103.208 18.625H95.5189V26.3144H103.208V18.625Z" fill="#FF0000"/>
<path d="M110.898 21.625C110.898 19.9681 109.555 18.625 107.898 18.625H103.208V26.3144H110.898V21.625Z" fill="#FF0000"/>
<path d="M133.966 21.625C133.966 19.9681 132.623 18.625 130.966 18.625H129.277C127.62 18.625 126.277 19.9681 126.277 21.625V23.3144C126.277 24.9712 127.62 26.3144 129.277 26.3144H133.966V21.625Z" fill="#FF0000"/>
<path d="M149.345 21.625C149.345 19.9681 148.002 18.625 146.345 18.625H144.655C142.998 18.625 141.655 19.9681 141.655 21.625V26.3144H149.345V21.625Z" fill="#FF0000"/>
<path d="M180.102 18.625H175.413C173.756 18.625 172.413 19.9681 172.413 21.625V23.3144C172.413 24.9712 173.756 26.3144 175.413 26.3144H180.102V18.625Z" fill="#FF0000"/>
<path d="M187.792 21.625C187.792 19.9681 186.449 18.625 184.792 18.625H180.102V26.3144H184.792C186.449 26.3144 187.792 24.9712 187.792 23.3144V21.625Z" fill="#FF0000"/>
<path d="M210.86 21.625C210.86 19.9681 209.517 18.625 207.86 18.625H206.17C204.514 18.625 203.17 19.9681 203.17 21.625V26.3144H210.86V21.625Z" fill="#FF0000"/>
<path d="M226.239 18.625H221.549C219.892 18.625 218.549 19.9681 218.549 21.625V26.3144H226.239V18.625Z" fill="#FF0000"/>
<path d="M233.928 18.625H226.239V26.3144H233.928V18.625Z" fill="#FF0000"/>
<path d="M241.617 18.625H233.928V26.3144H241.617V18.625Z" fill="#FF0000"/>
<path d="M249.307 18.625H241.617V26.3144H249.307V18.625Z" fill="#FF0000"/>
<path d="M256.996 18.625H249.307V26.3144H256.996V18.625Z" fill="#FF0000"/>
<path d="M264.686 18.625H256.996V26.3144H264.686V18.625Z" fill="#FF0000"/>
<path d="M272.375 21.625C272.375 19.9681 271.032 18.625 269.375 18.625H264.686V26.3144H272.375V21.625Z" fill="#FF0000"/>
<path d="M26.3144 26.3144H18.625V34.0038H26.3144V26.3144Z" fill="#FF0000"/>
<path d="M72.4508 26.3144H64.7614V34.0038H72.4508V26.3144Z" fill="#FF0000"/>
<path d="M110.898 26.3144H103.208V34.0038H110.898V26.3144Z" fill="#FF0000"/>
<path d="M141.655 26.3144H133.966V34.0038H141.655V26.3144Z" fill="#FF0000"/>
<path d="M157.034 29.3144C157.034 27.6575 155.691 26.3144 154.034 26.3144H149.345V34.0038H157.034V29.3144Z" fill="#FF0000"/>
<path d="M210.86 26.3144H203.17V34.0038H207.86C209.517 34.0038 210.86 32.6606 210.86 31.0038V26.3144Z" fill="#FF0000"/>
<path d="M226.239 26.3144H218.549V34.0038H226.239V26.3144Z" fill="#FF0000"/>
<path d="M272.375 26.3144H264.686V34.0038H272.375V26.3144Z" fill="#FF0000"/>
<path d="M26.3144 34.0038H18.625V41.6932H26.3144V34.0038Z" fill="#FF0000"/>
<path d="M41.6932 34.0038H37.0038C35.3469 34.0038 34.0038 35.3469 34.0038 37.0038V41.6932H41.6932V34.0038Z" fill="#FF0000"/>
<path d="M49.3826 34.0038H41.6932V41.6932H49.3826V34.0038Z" fill="#FF0000"/>
<path d="M57.072 37.0038C57.072 35.3469 55.7288 34.0038 54.072 34.0038H49.3826V41.6932H57.072V37.0038Z" fill="#FF0000"/>
<path d="M72.4508 34.0038H64.7614V41.6932H72.4508V34.0038Z" fill="#FF0000"/>
<path d="M110.898 34.0038H103.208V41.6932H110.898V34.0038Z" fill="#FF0000"/>
<path d="M126.277 34.0038H121.587C119.93 34.0038 118.587 35.3469 118.587 37.0038V41.6932H126.277V34.0038Z" fill="#FF0000"/>
<path d="M133.966 34.0038H126.277V41.6932H133.966V34.0038Z" fill="#FF0000"/>
<path d="M141.655 34.0038H133.966V41.6932H141.655V34.0038Z" fill="#FF0000"/>
<path d="M157.034 34.0038H149.345V41.6932H157.034V34.0038Z" fill="#FF0000"/>
<path d="M164.724 37.0038C164.724 35.3469 163.38 34.0038 161.724 34.0038H157.034V41.6932H164.724V37.0038Z" fill="#FF0000"/>
<path d="M195.481 34.0038H190.792C189.135 34.0038 187.792 35.3469 187.792 37.0038V41.6932H195.481V34.0038Z" fill="#FF0000"/>
<path d="M203.17 34.0038H195.481V41.6932H203.17V34.0038Z" fill="#FF0000"/>
<path d="M226.239 34.0038H218.549V41.6932H226.239V34.0038Z" fill="#FF0000"/>
<path d="M241.617 34.0038H236.928C235.271 34.0038 233.928 35.3469 233.928 37.0038V41.6932H241.617V34.0038Z" fill="#FF0000"/>
<path d="M249.307 34.0038H241.617V41.6932H249.307V34.0038Z" fill="#FF0000"/>
<path d="M256.996 37.0038C256.996 35.3469 255.653 34.0038 253.996 34.0038H249.307V41.6932H256.996V37.0038Z" fill="#FF0000"/>
<path d="M272.375 34.0038H264.686V41.6932H272.375V34.0038Z" fill="#FF0000"/>
<path d="M26.3144 41.6932H18.625V49.3826H26.3144V41.6932Z" fill="#FF0000"/>
<path d="M41.6932 41.6932H34.0038V49.3826H41.6932V41.6932Z" fill="#FF0000"/>
<path d="M49.3826 41.6932H41.6932V49.3826H49.3826V41.6932Z" fill="#FF0000"/>
<path d="M57.072 41.6932H49.3826V49.3826H57.072V41.6932Z" fill="#FF0000"/>
<path d="M72.4508 41.6932H64.7614V49.3826H72.4508V41.6932Z" fill="#FF0000"/>
<path d="M95.5189 41.6932H90.8296C89.1727 41.6932 87.8296 43.0363 87.8296 44.6932V49.3826H95.5189V41.6932Z" fill="#FF0000"/>
<path d="M103.208 41.6932H95.5189V49.3826H103.208V41.6932Z" fill="#FF0000"/>
<path d="M110.898 41.6932H103.208V49.3826H110.898V41.6932Z" fill="#FF0000"/>
<path d="M118.587 41.6932H110.898V49.3826H115.587C117.244 49.3826 118.587 48.0394 118.587 46.3826V41.6932Z" fill="#FF0000"/>
<path d="M149.345 41.6932H141.655V49.3826H146.345C148.002 49.3826 149.345 48.0394 149.345 46.3826V41.6932Z" fill="#FF0000"/>
<path d="M164.724 41.6932H157.034V49.3826H164.724V41.6932Z" fill="#FF0000"/>
<path d="M172.413 41.6932H164.724V49.3826H172.413V41.6932Z" fill="#FF0000"/>
<path d="M180.102 41.6932H172.413V49.3826H180.102V41.6932Z" fill="#FF0000"/>
<path d="M187.792 41.6932H180.102V49.3826H187.792V41.6932Z" fill="#FF0000"/>
<path d="M195.481 41.6932H187.792V49.3826H195.481V41.6932Z" fill="#FF0000"/>
<path d="M203.17 41.6932H195.481V49.3826H200.17C201.827 49.3826 203.17 48.0394 203.17 46.3826V41.6932Z" fill="#FF0000"/>
<path d="M226.239 41.6932H218.549V49.3826H226.239V41.6932Z" fill="#FF0000"/>
<path d="M241.617 41.6932H233.928V49.3826H241.617V41.6932Z" fill="#FF0000"/>
<path d="M249.307 41.6932H241.617V49.3826H249.307V41.6932Z" fill="#FF0000"/>
<path d="M256.996 41.6932H249.307V49.3826H256.996V41.6932Z" fill="#FF0000"/>
<path d="M272.375 41.6932H264.686V49.3826H272.375V41.6932Z" fill="#FF0000"/>
<path d="M26.3144 49.3826H18.625V57.072H26.3144V49.3826Z" fill="#FF0000"/>
<path d="M41.6932 49.3826H34.0038V54.072C34.0038 55.7288 35.3469 57.072 37.0038 57.072H41.6932V49.3826Z" fill="#FF0000"/>
<path d="M49.3826 49.3826H41.6932V57.072H49.3826V49.3826Z" fill="#FF0000"/>
<path d="M57.072 49.3826H49.3826V57.072H54.072C55.7288 57.072 57.072 55.7288 57.072 54.072V49.3826Z" fill="#FF0000"/>
<path d="M72.4508 49.3826H64.7614V57.072H72.4508V49.3826Z" fill="#FF0000"/>
<path d="M87.8296 49.3826H83.1402C81.4833 49.3826 80.1402 50.7257 80.1402 52.3826V54.072C80.1402 55.7288 81.4833 57.072 83.1402 57.072H87.8296V49.3826Z" fill="#FF0000"/>
<path d="M95.5189 49.3826H87.8296V57.072H95.5189V49.3826Z" fill="#FF0000"/>
<path d="M110.898 49.3826H103.208V57.072H110.898V49.3826Z" fill="#FF0000"/>
<path d="M141.655 49.3826H136.966C135.309 49.3826 133.966 50.7257 133.966 52.3826V57.072H141.655V49.3826Z" fill="#FF0000"/>
<path d="M164.724 49.3826H157.034V57.072H164.724V49.3826Z" fill="#FF0000"/>
<path d="M172.413 49.3826H164.724V57.072H172.413V49.3826Z" fill="#FF0000"/>
<path d="M180.102 49.3826H172.413V57.072H180.102V49.3826Z" fill="#FF0000"/>
<path d="M187.792 49.3826H180.102V57.072H187.792V49.3826Z" fill="#FF0000"/>
<path d="M226.239 49.3826H218.549V57.072H226.239V49.3826Z" fill="#FF0000"/>
<path d="M241.617 49.3826H233.928V54.072C233.928 55.7288 235.271 57.072 236.928 57.072H241.617V49.3826Z" fill="#FF0000"/>
<path d="M249.307 49.3826H241.617V57.072H249.307V49.3826Z" fill="#FF0000"/>
<path d="M256.996 49.3826H249.307V57.072H253.996C255.653 57.072 256.996 55.7288 256.996 54.072V49.3826Z" fill="#FF0000"/>
<path d="M272.375 49.3826H264.686V57.072H272.375V49.3826Z" fill="#FF0000"/>
<path d="M26.3144 57.072H18.625V64.7614H26.3144V57.072Z" fill="#FF0000"/>
<path d="M72.4508 57.072H64.7614V64.7614H72.4508V57.072Z" fill="#FF0000"/>
<path d="M103.208 57.072H95.5189V64.7614H103.208V57.072Z" fill="#FF0000"/>
<path d="M110.898 57.072H103.208V64.7614H110.898V57.072Z" fill="#FF0000"/>
<path d="M118.587 60.072C118.587 58.4151 117.244 57.072 115.587 57.072H110.898V64.7614H118.587V60.072Z" fill="#FF0000"/>
<path d="M133.966 57.072H129.277C127.62 57.072 126.277 58.4151 126.277 60.072V64.7614H133.966V57.072Z" fill="#FF0000"/>
<path d="M141.655 57.072H133.966V64.7614H141.655V57.072Z" fill="#FF0000"/>
<path d="M164.724 57.072H157.034V64.7614H164.724V57.072Z" fill="#FF0000"/>
<path d="M172.413 57.072H164.724V64.7614H172.413V57.072Z" fill="#FF0000"/>
<path d="M180.102 57.072H172.413V64.7614H180.102V57.072Z" fill="#FF0000"/>
<path d="M195.481 60.072C195.481 58.4151 194.138 57.072 192.481 57.072H187.792V64.7614H195.481V60.072Z" fill="#FF0000"/>
<path d="M210.86 60.072C210.86 58.4151 209.517 57.072 207.86 57.072H206.17C204.514 57.072 203.17 58.4151 203.17 60.072V64.7614H210.86V60.072Z" fill="#FF0000"/>
<path d="M226.239 57.072H218.549V64.7614H226.239V57.072Z" fill="#FF0000"/>
<path d="M272.375 57.072H264.686V64.7614H272.375V57.072Z" fill="#FF0000"/>
<path d="M26.3144 64.7614H18.625V69.4508C18.625 71.1076 19.9681 72.4508 21.625 72.4508H26.3144V64.7614Z" fill="#FF0000"/>
<path d="M34.0038 64.7614H26.3144V72.4508H34.0038V64.7614Z" fill="#FF0000"/>
<path d="M41.6932 64.7614H34.0038V72.4508H41.6932V64.7614Z" fill="#FF0000"/>
<path d="M49.3826 64.7614H41.6932V72.4508H49.3826V64.7614Z" fill="#FF0000"/>
<path d="M57.072 64.7614H49.3826V72.4508H57.072V64.7614Z" fill="#FF0000"/>
<path d="M64.7614 64.7614H57.072V72.4508H64.7614V64.7614Z" fill="#FF0000"/>
<path d="M72.4508 64.7614H64.7614V72.4508H69.4508C71.1076 72.4508 72.4508 71.1076 72.4508 69.4508V64.7614Z" fill="#FF0000"/>
<path d="M87.8296 67.7614C87.8296 66.1045 86.4864 64.7614 84.8296 64.7614H83.1402C81.4833 64.7614 80.1402 66.1045 80.1402 67.7614V72.4508H87.8296V67.7614Z" fill="#FF0000"/>
<path d="M103.208 64.7614H95.5189V69.4508C95.5189 71.1076 96.8621 72.4508 98.5189 72.4508H103.208V64.7614Z" fill="#FF0000"/>
<path d="M118.587 64.7614H110.898V72.4508H118.587V64.7614Z" fill="#FF0000"/>
<path d="M133.966 64.7614H126.277V72.4508H133.966V64.7614Z" fill="#FF0000"/>
<path d="M149.345 67.7614C149.345 66.1045 148.002 64.7614 146.345 64.7614H141.655V72.4508H149.345V67.7614Z" fill="#FF0000"/>
<path d="M164.724 64.7614H157.034V72.4508H164.724V64.7614Z" fill="#FF0000"/>
<path d="M180.102 64.7614H172.413V72.4508H180.102V64.7614Z" fill="#FF0000"/>
<path d="M195.481 64.7614H187.792V72.4508H195.481V64.7614Z" fill="#FF0000"/>
<path d="M210.86 64.7614H203.17V72.4508H207.86C209.517 72.4508 210.86 71.1076 210.86 69.4508V64.7614Z" fill="#FF0000"/>
<path d="M226.239 64.7614H218.549V69.4508C218.549 71.1076 219.892 72.4508 221.549 72.4508H226.239V64.7614Z" fill="#FF0000"/>
<path d="M233.928 64.7614H226.239V72.4508H233.928V64.7614Z" fill="#FF0000"/>
<path d="M241.617 64.7614H233.928V72.4508H241.617V64.7614Z" fill="#FF0000"/>
<path d="M249.307 64.7614H241.617V72.4508H249.307V64.7614Z" fill="#FF0000"/>
<path d="M256.996 64.7614H249.307V72.4508H256.996V64.7614Z" fill="#FF0000"/>
<path d="M264.686 64.7614H256.996V72.4508H264.686V64.7614Z" fill="#FF0000"/>
<path d="M272.375 64.7614H264.686V72.4508H269.375C271.032 72.4508 272.375 71.1076 272.375 69.4508V64.7614Z" fill="#FF0000"/>
<path d="M87.8296 72.4508H80.1402V80.1402H87.8296V72.4508Z" fill="#FF0000"/>
<path d="M110.898 72.4508H103.208V80.1402H110.898V72.4508Z" fill="#FF0000"/>
<path d="M126.277 72.4508H118.587V77.1402C118.587 78.797 119.93 80.1402 121.587 80.1402H123.277C124.933 80.1402 126.277 78.797 126.277 77.1402V72.4508Z" fill="#FF0000"/>
<path d="M141.655 72.4508H133.966V77.1402C133.966 78.797 135.309 80.1402 136.966 80.1402H141.655V72.4508Z" fill="#FF0000"/>
<path d="M149.345 72.4508H141.655V80.1402H149.345V72.4508Z" fill="#FF0000"/>
<path d="M164.724 72.4508H157.034V77.1402C157.034 78.797 158.377 80.1402 160.034 80.1402H164.724V72.4508Z" fill="#FF0000"/>
<path d="M180.102 72.4508H172.413V80.1402H180.102V72.4508Z" fill="#FF0000"/>
<path d="M195.481 72.4508H187.792V77.1402C187.792 78.797 189.135 80.1402 190.792 80.1402H195.481V72.4508Z" fill="#FF0000"/>
<path d="M203.17 72.4508H195.481V80.1402H203.17V72.4508Z" fill="#FF0000"/>
<path d="M26.3144 83.1402C26.3144 81.4833 24.9712 80.1402 23.3144 80.1402H21.625C19.9681 80.1402 18.625 81.4833 18.625 83.1402V87.8296H26.3144V83.1402Z" fill="#FF0000"/>
<path d="M49.3826 80.1402H44.6932C43.0363 80.1402 41.6932 81.4833 41.6932 83.1402V87.8296H49.3826V80.1402Z" fill="#FF0000"/>
<path d="M57.072 80.1402H49.3826V87.8296H57.072V80.1402Z" fill="#FF0000"/>
<path d="M64.7614 80.1402H57.072V87.8296H64.7614V80.1402Z" fill="#FF0000"/>
<path d="M72.4508 80.1402H64.7614V87.8296H72.4508V80.1402Z" fill="#FF0000"/>
<path d="M80.1402 80.1402H72.4508V87.8296H80.1402V80.1402Z" fill="#FF0000"/>
<path d="M87.8296 80.1402H80.1402V87.8296H87.8296V80.1402Z" fill="#FF0000"/>
<path d="M110.898 80.1402H103.208V87.8296H110.898V80.1402Z" fill="#FF0000"/>
<path d="M149.345 80.1402H141.655V87.8296H146.345C148.002 87.8296 149.345 86.4864 149.345 84.8296V80.1402Z" fill="#FF0000"/>
<path d="M172.413 80.1402H164.724L164.724 84.8295C164.724 86.4864 166.067 87.8296 167.724 87.8296H172.413V80.1402Z" fill="#FF0000"/>
<path d="M180.102 80.1402H172.413V87.8296H180.102V80.1402Z" fill="#FF0000"/>
<path d="M203.17 80.1402H195.481V84.8296C195.481 86.4864 196.824 87.8296 198.481 87.8296H203.17V80.1402Z" fill="#FF0000"/>
<path d="M218.549 80.1402H213.86C212.203 80.1402 210.86 81.4833 210.86 83.1402V87.8296H218.549V80.1402Z" fill="#FF0000"/>
<path d="M226.239 83.1402C226.239 81.4833 224.896 80.1402 223.239 80.1402H218.549V87.8296H226.239V83.1402Z" fill="#FF0000"/>
<path d="M241.617 83.1402C241.617 81.4833 240.274 80.1402 238.617 80.1402H236.928C235.271 80.1402 233.928 81.4833 233.928 83.1402V84.8296C233.928 86.4864 235.271 87.8296 236.928 87.8296H241.617V83.1402Z" fill="#FF0000"/>
<path d="M272.375 83.1402C272.375 81.4833 271.032 80.1402 269.375 80.1402H267.686C266.029 80.1402 264.686 81.4833 264.686 83.1402V87.8296H272.375V83.1402Z" fill="#FF0000"/>
<path d="M26.3144 87.8296H18.625V95.5189H26.3144V87.8296Z" fill="#FF0000"/>
<path d="M34.0038 87.8296H26.3144V95.5189H34.0038V87.8296Z" fill="#FF0000"/>
<path d="M41.6932 87.8296H34.0038V95.5189H41.6932V87.8296Z" fill="#FF0000"/>
<path d="M57.072 87.8296H49.3826V95.5189H57.072V87.8296Z" fill="#FF0000"/>
<path d="M95.5189 87.8296H87.8296V95.5189H95.5189V87.8296Z" fill="#FF0000"/>
<path d="M103.208 87.8296H95.5189V95.5189H103.208V87.8296Z" fill="#FF0000"/>
<path d="M110.898 87.8296H103.208V95.5189H110.898V87.8296Z" fill="#FF0000"/>
<path d="M118.587 90.8296C118.587 89.1727 117.244 87.8296 115.587 87.8296H110.898V95.5189H118.587V90.8296Z" fill="#FF0000"/>
<path d="M141.655 87.8296H136.966C135.309 87.8296 133.966 89.1727 133.966 90.8296V95.5189H141.655V87.8296Z" fill="#FF0000"/>
<path d="M180.102 87.8296H172.413V95.5189H180.102V87.8296Z" fill="#FF0000"/>
<path d="M187.792 90.8296C187.792 89.1727 186.449 87.8296 184.792 87.8296H180.102V95.5189H187.792V90.8296Z" fill="#FF0000"/>
<path d="M210.86 87.8296H203.17V95.5189H210.86V87.8296Z" fill="#FF0000"/>
<path d="M218.549 87.8296H210.86V95.5189H218.549V87.8296Z" fill="#FF0000"/>
<path d="M226.239 87.8296H218.549V95.5189H223.239C224.895 95.5189 226.239 94.1758 226.239 92.5189V87.8296Z" fill="#FF0000"/>
<path d="M249.307 87.8296H241.617V95.5189H249.307V87.8296Z" fill="#FF0000"/>
<path d="M256.996 87.8296H249.307V95.5189H256.996V87.8296Z" fill="#FF0000"/>
<path d="M264.686 87.8296H256.996V95.5189H264.686V87.8296Z" fill="#FF0000"/>
<path d="M272.375 87.8296H264.686V95.5189H272.375V87.8296Z" fill="#FF0000"/>
<path d="M26.3144 95.5189H18.625V103.208H26.3144V95.5189Z" fill="#FF0000"/>
<path d="M49.3826 95.5189H41.6932V103.208H49.3826V95.5189Z" fill="#FF0000"/>
<path d="M64.7614 95.5189H57.072V103.208H64.7614V95.5189Z" fill="#FF0000"/>
<path d="M72.4508 95.5189H64.7614V103.208H72.4508V95.5189Z" fill="#FF0000"/>
<path d="M80.1402 95.5189H72.4508V103.208H80.1402V95.5189Z" fill="#FF0000"/>
<path d="M87.8296 95.5189H80.1402V103.208H87.8296V95.5189Z" fill="#FF0000"/>
<path d="M103.208 95.5189H95.5189V103.208H103.208V95.5189Z" fill="#FF0000"/>
<path d="M110.898 95.5189H103.208V103.208H107.898C109.555 103.208 110.898 101.865 110.898 100.208V95.5189Z" fill="#FF0000"/>
<path d="M126.277 98.5189C126.277 96.8621 124.933 95.5189 123.277 95.5189H118.587V103.208H126.277V98.5189Z" fill="#FF0000"/>
<path d="M141.655 95.5189H133.966V103.208H141.655V95.5189Z" fill="#FF0000"/>
<path d="M164.724 95.5189H160.034C158.377 95.5189 157.034 96.8621 157.034 98.5189V100.208C157.034 101.865 158.377 103.208 160.034 103.208H164.724V95.5189Z" fill="#FF0000"/>
<path d="M172.413 95.5189H164.724V103.208H172.413V95.5189Z" fill="#FF0000"/>
<path d="M195.481 98.5189C195.481 96.8621 194.138 95.5189 192.481 95.5189H187.792V103.208H195.481V98.5189Z" fill="#FF0000"/>
<path d="M210.86 95.5189H203.17V103.208H210.86V95.5189Z" fill="#FF0000"/>
<path d="M218.549 95.5189H210.86V103.208H215.549C217.206 103.208 218.549 101.865 218.549 100.208V95.5189Z" fill="#FF0000"/>
<path d="M241.617 95.5189H236.928C235.271 95.5189 233.928 96.8621 233.928 98.5189V103.208H241.617V95.5189Z" fill="#FF0000"/>
<path d="M264.686 95.5189H256.996V103.208H264.686V95.5189Z" fill="#FF0000"/>
<path d="M272.375 95.5189H264.686V103.208H269.375C271.032 103.208 272.375 101.865 272.375 100.208V95.5189Z" fill="#FF0000"/>
<path d="M26.3144 103.208H18.625V110.898H26.3144V103.208Z" fill="#FF0000"/>
<path d="M34.0038 103.208H26.3144V110.898H34.0038V103.208Z" fill="#FF0000"/>
<path d="M41.6932 103.208H34.0038V110.898H41.6932V103.208Z" fill="#FF0000"/>
<path d="M49.3826 103.208H41.6932V110.898H49.3826V103.208Z" fill="#FF0000"/>
<path d="M57.072 103.208H49.3826V110.898H57.072V103.208Z" fill="#FF0000"/>
<path d="M80.1402 103.208H72.4508V110.898H80.1402V103.208Z" fill="#FF0000"/>
<path d="M95.5189 103.208H87.8296V110.898H95.5189V103.208Z" fill="#FF0000"/>
<path d="M126.277 103.208H118.587V107.898C118.587 109.555 119.93 110.898 121.587 110.898H126.277V103.208Z" fill="#FF0000"/>
<path d="M133.966 103.208H126.277V110.898H133.966V103.208Z" fill="#FF0000"/>
<path d="M141.655 103.208H133.966V110.898H141.655V103.208Z" fill="#FF0000"/>
<path d="M149.345 106.208C149.345 104.551 148.002 103.208 146.345 103.208H141.655V110.898H149.345V106.208Z" fill="#FF0000"/>
<path d="M172.413 103.208H164.724L164.724 110.898H169.413C171.07 110.898 172.413 109.555 172.413 107.898V103.208Z" fill="#FF0000"/>
<path d="M195.481 103.208H187.792V110.898H192.481C194.138 110.898 195.481 109.555 195.481 107.898V103.208Z" fill="#FF0000"/>
<path d="M210.86 103.208H203.17V107.898C203.17 109.555 204.514 110.898 206.17 110.898H210.86V103.208Z" fill="#FF0000"/>
<path d="M241.617 103.208H233.928V107.898C233.928 109.555 235.271 110.898 236.928 110.898H241.617V103.208Z" fill="#FF0000"/>
<path d="M249.307 106.208C249.307 104.551 247.964 103.208 246.307 103.208H241.617V110.898H249.307V106.208Z" fill="#FF0000"/>
<path d="M264.686 103.208H256.996V110.898H264.686V103.208Z" fill="#FF0000"/>
<path d="M26.3144 110.898H18.625V115.587C18.625 117.244 19.9681 118.587 21.625 118.587H26.3144V110.898Z" fill="#FF0000"/>
<path d="M34.0038 110.898H26.3144V118.587H34.0038V110.898Z" fill="#FF0000"/>
<path d="M41.6932 110.898H34.0038V118.587H41.6932V110.898Z" fill="#FF0000"/>
<path d="M57.072 110.898H49.3826V118.587H57.072V110.898Z" fill="#FF0000"/>
<path d="M64.7614 110.898H57.072V118.587H64.7614V110.898Z" fill="#FF0000"/>
<path d="M72.4508 110.898H64.7614V118.587H69.4508C71.1076 118.587 72.4508 117.244 72.4508 115.587V110.898Z" fill="#FF0000"/>
<path d="M87.8296 110.898H80.1402V115.587C80.1402 117.244 81.4833 118.587 83.1402 118.587H87.8296V110.898Z" fill="#FF0000"/>
<path d="M95.5189 110.898H87.8296V118.587H95.5189V110.898Z" fill="#FF0000"/>
<path d="M110.898 113.898C110.898 112.241 109.555 110.898 107.898 110.898H106.208C104.551 110.898 103.208 112.241 103.208 113.898V115.587C103.208 117.244 104.551 118.587 106.208 118.587H110.898V113.898Z" fill="#FF0000"/>
<path d="M133.966 110.898H126.277V118.587H130.966C132.623 118.587 133.966 117.244 133.966 115.587V110.898Z" fill="#FF0000"/>
<path d="M157.034 110.898H149.345V118.587H157.034V110.898Z" fill="#FF0000"/>
<path d="M164.724 110.898H157.034V118.587H164.724L164.724 110.898Z" fill="#FF0000"/>
<path d="M187.792 110.898H183.102C181.445 110.898 180.102 112.241 180.102 113.898V115.587C180.102 117.244 181.445 118.587 183.102 118.587H184.792C186.449 118.587 187.792 117.244 187.792 115.587V110.898Z" fill="#FF0000"/>
<path d="M218.549 110.898H210.86V115.587C210.86 117.244 212.203 118.587 213.86 118.587H218.549V110.898Z" fill="#FF0000"/>
<path d="M226.239 113.898C226.239 112.241 224.896 110.898 223.239 110.898H218.549V118.587H223.239C224.895 118.587 226.239 117.244 226.239 115.587V113.898Z" fill="#FF0000"/>
<path d="M249.307 110.898H241.617V118.587H249.307V110.898Z" fill="#FF0000"/>
<path d="M256.996 110.898H249.307V118.587H256.996V110.898Z" fill="#FF0000"/>
<path d="M264.686 110.898H256.996V118.587H264.686V110.898Z" fill="#FF0000"/>
<path d="M41.6932 118.587H34.0038V123.277C34.0038 124.933 35.3469 126.277 37.0038 126.277H41.6932V118.587Z" fill="#FF0000"/>
<path d="M57.072 118.587H49.3826V126.277H57.072V118.587Z" fill="#FF0000"/>
<path d="M64.7614 118.587H57.072V126.277H64.7614V118.587Z" fill="#FF0000"/>
<path d="M95.5189 118.587H87.8296V126.277H92.5189C94.1758 126.277 95.5189 124.933 95.5189 123.277V118.587Z" fill="#FF0000"/>
<path d="M118.587 118.587H110.898V126.277H118.587V118.587Z" fill="#FF0000"/>
<path d="M126.277 118.587H118.587V126.277H123.277C124.933 126.277 126.277 124.933 126.277 123.277V118.587Z" fill="#FF0000"/>
<path d="M157.034 118.587H149.345V123.277C149.345 124.933 150.688 126.277 152.345 126.277H157.034V118.587Z" fill="#FF0000"/>
<path d="M172.413 121.587C172.413 119.93 171.07 118.587 169.413 118.587H164.724L164.724 126.277H172.413V121.587Z" fill="#FF0000"/>
<path d="M241.617 118.587H236.928C235.271 118.587 233.928 119.93 233.928 121.587V126.277H241.617V118.587Z" fill="#FF0000"/>
<path d="M256.996 118.587H249.307V126.277H256.996V118.587Z" fill="#FF0000"/>
<path d="M264.686 118.587H256.996V126.277H264.686V118.587Z" fill="#FF0000"/>
<path d="M272.375 121.587C272.375 119.93 271.032 118.587 269.375 118.587H264.686V126.277H269.375C271.032 126.277 272.375 124.933 272.375 123.277V121.587Z" fill="#FF0000"/>
<path d="M49.3826 126.277H41.6932V133.966H49.3826V126.277Z" fill="#FF0000"/>
<path d="M57.072 126.277H49.3826V133.966H54.072C55.7288 133.966 57.072 132.623 57.072 130.966V126.277Z" fill="#FF0000"/>
<path d="M72.4508 129.277C72.4508 127.62 71.1076 126.277 69.4508 126.277H64.7614V130.966C64.7614 132.623 66.1045 133.966 67.7614 133.966H72.4508V129.277Z" fill="#FF0000"/>
<path d="M87.8296 126.277H83.1402C81.4833 126.277 80.1402 127.62 80.1402 129.277V133.966H87.8296V126.277Z" fill="#FF0000"/>
<path d="M110.898 126.277H106.208C104.551 126.277 103.208 127.62 103.208 129.277V133.966H110.898V126.277Z" fill="#FF0000"/>
<path d="M118.587 126.277H110.898V133.966H115.587C117.244 133.966 118.587 132.623 118.587 130.966V126.277Z" fill="#FF0000"/>
<path d="M164.724 126.277H157.034V133.966H164.724L164.724 126.277Z" fill="#FF0000"/>
<path d="M180.102 126.277H172.413V130.966C172.413 132.623 173.756 133.966 175.413 133.966H180.102V126.277Z" fill="#FF0000"/>
<path d="M187.792 126.277H180.102V133.966H187.792V126.277Z" fill="#FF0000"/>
<path d="M195.481 126.277H187.792V133.966H195.481V126.277Z" fill="#FF0000"/>
<path d="M203.17 129.277C203.17 127.62 201.827 126.277 200.17 126.277H195.481V133.966H203.17V129.277Z" fill="#FF0000"/>
<path d="M218.549 126.277H213.86C212.203 126.277 210.86 127.62 210.86 129.277V130.966C210.86 132.623 212.203 133.966 213.86 133.966H218.549V126.277Z" fill="#FF0000"/>
<path d="M226.239 126.277H218.549V133.966H226.239V126.277Z" fill="#FF0000"/>
<path d="M233.928 126.277H226.239V133.966H230.928C232.585 133.966 233.928 132.623 233.928 130.966V126.277Z" fill="#FF0000"/>
<path d="M249.307 126.277H241.617V130.966C241.617 132.623 242.961 133.966 244.617 133.966H246.307C247.964 133.966 249.307 132.623 249.307 130.966V126.277Z" fill="#FF0000"/>
<path d="M264.686 126.277H256.996V130.966C256.996 132.623 258.339 133.966 259.996 133.966H264.686V126.277Z" fill="#FF0000"/>
<path d="M26.3144 136.966C26.3144 135.309 24.9712 133.966 23.3144 133.966H21.625C19.9681 133.966 18.625 135.309 18.625 136.966V138.655C18.625 140.312 19.9681 141.655 21.625 141.655H26.3144V136.966Z" fill="#FF0000"/>
<path d="M49.3826 133.966H41.6932V141.655H46.3826C48.0394 141.655 49.3826 140.312 49.3826 138.655V133.966Z" fill="#FF0000"/>
<path d="M80.1402 133.966H72.4508V141.655H80.1402V133.966Z" fill="#FF0000"/>
<path d="M95.5189 133.966H87.8296V141.655H95.5189V133.966Z" fill="#FF0000"/>
<path d="M103.208 133.966H95.5189V141.655H103.208V133.966Z" fill="#FF0000"/>
<path d="M110.898 133.966H103.208V141.655H107.898C109.555 141.655 110.898 140.312 110.898 138.655V133.966Z" fill="#FF0000"/>
<path d="M149.345 133.966H144.655C142.998 133.966 141.655 135.309 141.655 136.966V141.655H149.345V133.966Z" fill="#FF0000"/>
<path d="M157.034 133.966H149.345V141.655H157.034V133.966Z" fill="#FF0000"/>
<path d="M164.724 133.966H157.034V141.655H164.724V133.966Z" fill="#FF0000"/>
<path d="M195.481 133.966H187.792V138.655C187.792 140.312 189.135 141.655 190.792 141.655H195.481V133.966Z" fill="#FF0000"/>
<path d="M203.17 133.966H195.481V141.655H203.17V133.966Z" fill="#FF0000"/>
<path d="M226.239 133.966H218.549V141.655H226.239V133.966Z" fill="#FF0000"/>
<path d="M272.375 136.966C272.375 135.309 271.032 133.966 269.375 133.966H264.686V141.655H272.375V136.966Z" fill="#FF0000"/>
<path d="M34.0038 141.655H26.3144V149.345H34.0038V141.655Z" fill="#FF0000"/>
<path d="M41.6932 141.655H34.0038V149.345H41.6932V141.655Z" fill="#FF0000"/>
<path d="M64.7614 141.655H60.072C58.4151 141.655 57.072 142.998 57.072 144.655V149.345H64.7614V141.655Z" fill="#FF0000"/>
<path d="M72.4508 141.655H64.7614V149.345H72.4508V141.655Z" fill="#FF0000"/>
<path d="M80.1402 141.655H72.4508V149.345H80.1402V141.655Z" fill="#FF0000"/>
<path d="M87.8296 141.655H80.1402V149.345H87.8296V141.655Z" fill="#FF0000"/>
<path d="M103.208 141.655H95.5189V149.345H103.208V141.655Z" fill="#FF0000"/>
<path d="M126.277 141.655H121.587C119.93 141.655 118.587 142.998 118.587 144.655V146.345C118.587 148.002 119.93 149.345 121.587 149.345H126.277V141.655Z" fill="#FF0000"/>
<path d="M133.966 144.655C133.966 142.998 132.623 141.655 130.966 141.655H126.277V149.345H133.966V144.655Z" fill="#FF0000"/>
<path d="M149.345 141.655H141.655V149.345H149.345V141.655Z" fill="#FF0000"/>
<path d="M164.724 141.655H157.034V149.345H161.724C163.38 149.345 164.724 148.002 164.724 146.345V141.655Z" fill="#FF0000"/>
<path d="M180.102 144.655C180.102 142.998 178.759 141.655 177.102 141.655H175.413C173.756 141.655 172.413 142.998 172.413 144.655V146.345C172.413 148.002 173.756 149.345 175.413 149.345H177.102C178.759 149.345 180.102 148.002 180.102 146.345V144.655Z" fill="#FF0000"/>
<path d="M203.17 141.655H195.481V149.345H203.17V141.655Z" fill="#FF0000"/>
<path d="M218.549 141.655H213.86C212.203 141.655 210.86 142.998 210.86 144.655V149.345H218.549V141.655Z" fill="#FF0000"/>
<path d="M226.239 141.655H218.549V149.345H226.239V141.655Z" fill="#FF0000"/>
<path d="M249.307 141.655H244.617C242.961 141.655 241.617 142.998 241.617 144.655V146.345C241.617 148.002 242.961 149.345 244.617 149.345H249.307V141.655Z" fill="#FF0000"/>
<path d="M256.996 144.655C256.996 142.998 255.653 141.655 253.996 141.655H249.307V149.345H256.996V144.655Z" fill="#FF0000"/>
<path d="M272.375 141.655H264.686V149.345H272.375V141.655Z" fill="#FF0000"/>
<path d="M26.3144 149.345H21.625C19.9681 149.345 18.625 150.688 18.625 152.345V154.034C18.625 155.691 19.9681 157.034 21.625 157.034H26.3144V149.345Z" fill="#FF0000"/>
<path d="M34.0038 149.345H26.3144V157.034H31.0038C32.6606 157.034 34.0038 155.691 34.0038 154.034V149.345Z" fill="#FF0000"/>
<path d="M49.3826 149.345H41.6932V157.034H49.3826V149.345Z" fill="#FF0000"/>
<path d="M57.072 149.345H49.3826V157.034H57.072V149.345Z" fill="#FF0000"/>
<path d="M80.1402 149.345H72.4508V157.034H80.1402V149.345Z" fill="#FF0000"/>
<path d="M87.8296 149.345H80.1402V157.034H87.8296V149.345Z" fill="#FF0000"/>
<path d="M103.208 149.345H95.5189V154.034C95.5189 155.691 96.8621 157.034 98.5189 157.034H103.208V149.345Z" fill="#FF0000"/>
<path d="M110.898 152.345C110.898 150.688 109.555 149.345 107.898 149.345H103.208V157.034H110.898V152.345Z" fill="#FF0000"/>
<path d="M133.966 149.345H126.277V157.034H133.966V149.345Z" fill="#FF0000"/>
<path d="M141.655 149.345H133.966V157.034H141.655V149.345Z" fill="#FF0000"/>
<path d="M149.345 149.345H141.655V157.034H149.345V149.345Z" fill="#FF0000"/>
<path d="M157.034 149.345H149.345V157.034H157.034V149.345Z" fill="#FF0000"/>
<path d="M195.481 149.345H190.792C189.135 149.345 187.792 150.688 187.792 152.345V157.034H195.481V149.345Z" fill="#FF0000"/>
<path d="M203.17 149.345H195.481V157.034H203.17V149.345Z" fill="#FF0000"/>
<path d="M210.86 149.345H203.17V157.034H210.86V149.345Z" fill="#FF0000"/>
<path d="M226.239 149.345H218.549V154.034C218.549 155.691 219.892 157.034 221.549 157.034H226.239V149.345Z" fill="#FF0000"/>
<path d="M233.928 152.345C233.928 150.688 232.585 149.345 230.928 149.345H226.239V157.034H233.928V152.345Z" fill="#FF0000"/>
<path d="M256.996 149.345H249.307V154.034C249.307 155.691 250.65 157.034 252.307 157.034H256.996V149.345Z" fill="#FF0000"/>
<path d="M264.686 149.345H256.996V157.034H264.686V149.345Z" fill="#FF0000"/>
<path d="M272.375 149.345H264.686V157.034H272.375V149.345Z" fill="#FF0000"/>
<path d="M49.3826 157.034H41.6932V164.724H49.3826V157.034Z" fill="#FF0000"/>
<path d="M57.072 157.034H49.3826V164.724H57.072V157.034Z" fill="#FF0000"/>
<path d="M64.7614 157.034H57.072V164.724H64.7614V157.034Z" fill="#FF0000"/>
<path d="M72.4508 157.034H64.7614V164.724H72.4508V157.034Z" fill="#FF0000"/>
<path d="M80.1402 157.034H72.4508V164.724H80.1402V157.034Z" fill="#FF0000"/>
<path d="M87.8296 157.034H80.1402V164.724H87.8296V157.034Z" fill="#FF0000"/>
<path d="M110.898 157.034H103.208V164.724H110.898V157.034Z" fill="#FF0000"/>
<path d="M118.587 160.034C118.587 158.377 117.244 157.034 115.587 157.034H110.898V164.724H118.587V160.034Z" fill="#FF0000"/>
<path d="M133.966 157.034H126.277V164.724H133.966V157.034Z" fill="#FF0000"/>
<path d="M157.034 157.034H149.345V161.724C149.345 163.38 150.688 164.724 152.345 164.724H157.034V157.034Z" fill="#FF0000"/>
<path d="M164.724 160.034C164.724 158.377 163.38 157.034 161.724 157.034H157.034V164.724H161.724C163.38 164.724 164.724 163.38 164.724 161.724V160.034Z" fill="#FF0000"/>
<path d="M187.792 157.034H183.102C181.445 157.034 180.102 158.377 180.102 160.034V164.724H187.792V157.034Z" fill="#FF0000"/>
<path d="M203.17 157.034H195.481V161.724C195.481 163.38 196.824 164.724 198.481 164.724H203.17V157.034Z" fill="#FF0000"/>
<path d="M210.86 157.034H203.17V164.724H210.86V157.034Z" fill="#FF0000"/>
<path d="M233.928 157.034H226.239V161.724C226.239 163.38 227.582 164.724 229.239 164.724H233.928V157.034Z" fill="#FF0000"/>
<path d="M241.617 160.034C241.617 158.377 240.274 157.034 238.617 157.034H233.928V164.724H241.617V160.034Z" fill="#FF0000"/>
<path d="M264.686 157.034H256.996V164.724H264.686V157.034Z" fill="#FF0000"/>
<path d="M272.375 157.034H264.686V164.724H269.375C271.032 164.724 272.375 163.38 272.375 161.724V157.034Z" fill="#FF0000"/>
<path d="M34.0038 164.724H29.3144C27.6575 164.724 26.3144 166.067 26.3144 167.723V172.413H34.0038V164.724Z" fill="#FF0000"/>
<path d="M41.6932 164.724L34.0038 164.724V172.413H41.6932V164.724Z" fill="#FF0000"/>
<path d="M57.072 164.724H49.3826V172.413H57.072V164.724Z" fill="#FF0000"/>
<path d="M64.7614 164.724H57.072V172.413H64.7614V164.724Z" fill="#FF0000"/>
<path d="M87.8296 164.724H80.1402V169.413C80.1402 171.07 81.4833 172.413 83.1402 172.413H87.8296V164.724Z" fill="#FF0000"/>
<path d="M110.898 164.724H103.208V172.413H110.898V164.724Z" fill="#FF0000"/>
<path d="M118.587 164.724H110.898V172.413H118.587V164.724Z" fill="#FF0000"/>
<path d="M126.277 164.724H118.587V172.413H126.277V164.724Z" fill="#FF0000"/>
<path d="M133.966 164.724H126.277V172.413H133.966V164.724Z" fill="#FF0000"/>
<path d="M141.655 167.724C141.655 166.067 140.312 164.724 138.655 164.724L133.966 164.724V172.413H141.655V167.724Z" fill="#FF0000"/>
<path d="M180.102 164.724L175.413 164.724C173.756 164.724 172.413 166.067 172.413 167.724V169.413C172.413 171.07 173.756 172.413 175.413 172.413H180.102V164.724Z" fill="#FF0000"/>
<path d="M187.792 164.724H180.102V172.413H187.792V164.724Z" fill="#FF0000"/>
<path d="M210.86 164.724H203.17V172.413H210.86V164.724Z" fill="#FF0000"/>
<path d="M218.549 167.724C218.549 166.067 217.206 164.724 215.549 164.724L210.86 164.724V172.413H215.549C217.206 172.413 218.549 171.07 218.549 169.413V167.724Z" fill="#FF0000"/>
<path d="M241.617 164.724H233.928V172.413H241.617V164.724Z" fill="#FF0000"/>
<path d="M249.307 164.724L241.617 164.724V172.413H249.307V164.724Z" fill="#FF0000"/>
<path d="M256.996 164.724L249.307 164.724V172.413H256.996V164.724Z" fill="#FF0000"/>
<path d="M264.686 164.724H256.996V172.413H264.686V164.724Z" fill="#FF0000"/>
<path d="M26.3144 172.413H21.625C19.9681 172.413 18.625 173.756 18.625 175.413V180.102H26.3144V172.413Z" fill="#FF0000"/>
<path d="M34.0038 172.413H26.3144V180.102H34.0038V172.413Z" fill="#FF0000"/>
<path d="M49.3826 172.413H41.6932V180.102H49.3826V172.413Z" fill="#FF0000"/>
<path d="M57.072 172.413H49.3826V180.102H57.072V172.413Z" fill="#FF0000"/>
<path d="M72.4508 175.413C72.4508 173.756 71.1076 172.413 69.4508 172.413H64.7614V180.102H72.4508V175.413Z" fill="#FF0000"/>
<path d="M95.5189 175.413C95.5189 173.756 94.1758 172.413 92.5189 172.413H87.8296V180.102H95.5189V175.413Z" fill="#FF0000"/>
<path d="M110.898 172.413H103.208V180.102H110.898V172.413Z" fill="#FF0000"/>
<path d="M118.587 172.413H110.898V180.102H115.587C117.244 180.102 118.587 178.759 118.587 177.102V172.413Z" fill="#FF0000"/>
<path d="M141.655 172.413H133.966V180.102H141.655V172.413Z" fill="#FF0000"/>
<path d="M157.034 172.413H152.345C150.688 172.413 149.345 173.756 149.345 175.413V180.102H157.034V172.413Z" fill="#FF0000"/>
<path d="M164.724 175.413C164.724 173.756 163.38 172.413 161.724 172.413H157.034V180.102H161.724C163.38 180.102 164.724 178.759 164.724 177.102V175.413Z" fill="#FF0000"/>
<path d="M187.792 172.413H180.102V180.102H187.792V172.413Z" fill="#FF0000"/>
<path d="M195.481 175.413C195.481 173.756 194.138 172.413 192.481 172.413H187.792V180.102H195.481V175.413Z" fill="#FF0000"/>
<path d="M210.86 172.413H203.17V180.102H210.86V172.413Z" fill="#FF0000"/>
<path d="M241.617 172.413H233.928V180.102H241.617V172.413Z" fill="#FF0000"/>
<path d="M264.686 172.413H256.996V180.102H264.686V172.413Z" fill="#FF0000"/>
<path d="M26.3144 180.102H18.625V184.792C18.625 186.449 19.9681 187.792 21.625 187.792H26.3144V180.102Z" fill="#FF0000"/>
<path d="M34.0038 180.102H26.3144V187.792H34.0038V180.102Z" fill="#FF0000"/>
<path d="M49.3826 180.102H41.6932V187.792H46.3826C48.0394 187.792 49.3826 186.449 49.3826 184.792V180.102Z" fill="#FF0000"/>
<path d="M64.7614 180.102H57.072V184.792C57.072 186.449 58.4151 187.792 60.072 187.792H64.7614V180.102Z" fill="#FF0000"/>
<path d="M80.1402 180.102H72.4508V187.792H80.1402V180.102Z" fill="#FF0000"/>
<path d="M87.8296 180.102H80.1402V187.792H87.8296V180.102Z" fill="#FF0000"/>
<path d="M103.208 180.102H95.5189V187.792H103.208V180.102Z" fill="#FF0000"/>
<path d="M110.898 180.102H103.208V187.792H107.898C109.555 187.792 110.898 186.449 110.898 184.792V180.102Z" fill="#FF0000"/>
<path d="M133.966 180.102H129.277C127.62 180.102 126.277 181.445 126.277 183.102V187.792H133.966V180.102Z" fill="#FF0000"/>
<path d="M141.655 180.102H133.966V187.792H141.655V180.102Z" fill="#FF0000"/>
<path d="M149.345 180.102H141.655V187.792H149.345V180.102Z" fill="#FF0000"/>
<path d="M157.034 180.102H149.345V187.792H157.034V180.102Z" fill="#FF0000"/>
<path d="M187.792 180.102H180.102V187.792H187.792V180.102Z" fill="#FF0000"/>
<path d="M195.481 180.102H187.792V187.792H195.481V180.102Z" fill="#FF0000"/>
<path d="M203.17 180.102H195.481V187.792H203.17V180.102Z" fill="#FF0000"/>
<path d="M210.86 180.102H203.17V187.792H210.86V180.102Z" fill="#FF0000"/>
<path d="M226.239 180.102H221.549C219.892 180.102 218.549 181.445 218.549 183.102V187.792H226.239V180.102Z" fill="#FF0000"/>
<path d="M233.928 180.102H226.239V187.792H230.928C232.585 187.792 233.928 186.449 233.928 184.792V180.102Z" fill="#FF0000"/>
<path d="M249.307 180.102H241.617V187.792H249.307V180.102Z" fill="#FF0000"/>
<path d="M256.996 180.102H249.307V187.792H256.996V180.102Z" fill="#FF0000"/>
<path d="M264.686 180.102H256.996V187.792H264.686V180.102Z" fill="#FF0000"/>
<path d="M272.375 183.102C272.375 181.445 271.032 180.102 269.375 180.102H264.686V187.792H269.375C271.032 187.792 272.375 186.449 272.375 184.792V183.102Z" fill="#FF0000"/>
<path d="M34.0038 187.792H26.3144V195.481H34.0038V187.792Z" fill="#FF0000"/>
<path d="M41.6932 187.792H34.0038V195.481H41.6932V187.792Z" fill="#FF0000"/>
<path d="M72.4508 187.792H64.7614V192.481C64.7614 194.138 66.1045 195.481 67.7614 195.481H72.4508V187.792Z" fill="#FF0000"/>
<path d="M87.8296 187.792H80.1402V195.481H87.8296V187.792Z" fill="#FF0000"/>
<path d="M103.208 187.792H95.5189V195.481H103.208V187.792Z" fill="#FF0000"/>
<path d="M126.277 187.792H121.587C119.93 187.792 118.587 189.135 118.587 190.792V192.481C118.587 194.138 119.93 195.481 121.587 195.481H123.277C124.933 195.481 126.277 194.138 126.277 192.481V187.792Z" fill="#FF0000"/>
<path d="M141.655 187.792H133.966V192.481C133.966 194.138 135.309 195.481 136.966 195.481H141.655V187.792Z" fill="#FF0000"/>
<path d="M157.034 187.792H149.345V195.481H157.034V187.792Z" fill="#FF0000"/>
<path d="M172.413 187.792H167.724C166.067 187.792 164.724 189.135 164.724 190.792V195.481H172.413V187.792Z" fill="#FF0000"/>
<path d="M180.102 187.792H172.413V195.481H177.102C178.759 195.481 180.102 194.138 180.102 192.481V187.792Z" fill="#FF0000"/>
<path d="M195.481 187.792H187.792V195.481H195.481V187.792Z" fill="#FF0000"/>
<path d="M203.17 187.792H195.481V195.481H200.17C201.827 195.481 203.17 194.138 203.17 192.481V187.792Z" fill="#FF0000"/>
<path d="M218.549 187.792H210.86V192.481C210.86 194.138 212.203 195.481 213.86 195.481H218.549V187.792Z" fill="#FF0000"/>
<path d="M226.239 187.792H218.549V195.481H223.239C224.895 195.481 226.239 194.138 226.239 192.481V187.792Z" fill="#FF0000"/>
<path d="M249.307 187.792H241.617V195.481H249.307V187.792Z" fill="#FF0000"/>
<path d="M256.996 187.792H249.307V195.481H256.996V187.792Z" fill="#FF0000"/>
<path d="M264.686 187.792H256.996V195.481H261.686C263.342 195.481 264.686 194.138 264.686 192.481V187.792Z" fill="#FF0000"/>
<path d="M26.3144 195.481H21.625C19.9681 195.481 18.625 196.824 18.625 198.481V200.17C18.625 201.827 19.9681 203.17 21.625 203.17H23.3144C24.9712 203.17 26.3144 201.827 26.3144 200.17V195.481Z" fill="#FF0000"/>
<path d="M49.3826 198.481C49.3826 196.824 48.0394 195.481 46.3826 195.481H41.6932V203.17H49.3826V198.481Z" fill="#FF0000"/>
<path d="M80.1402 195.481H72.4508V203.17H77.1402C78.797 203.17 80.1402 201.827 80.1402 200.17V195.481Z" fill="#FF0000"/>
<path d="M95.5189 195.481H87.8296V203.17H95.5189V195.481Z" fill="#FF0000"/>
<path d="M103.208 195.481H95.5189V203.17H103.208V195.481Z" fill="#FF0000"/>
<path d="M149.345 195.481H141.655V203.17H149.345V195.481Z" fill="#FF0000"/>
<path d="M157.034 195.481H149.345V203.17H157.034V195.481Z" fill="#FF0000"/>
<path d="M164.724 195.481H157.034V203.17H164.724L164.724 195.481Z" fill="#FF0000"/>
<path d="M172.413 195.481H164.724L164.724 203.17H172.413V195.481Z" fill="#FF0000"/>
<path d="M195.481 195.481H187.792V203.17H195.481V195.481Z" fill="#FF0000"/>
<path d="M249.307 195.481H241.617V203.17H249.307V195.481Z" fill="#FF0000"/>
<path d="M256.996 195.481H249.307V203.17H256.996V195.481Z" fill="#FF0000"/>
<path d="M49.3826 203.17H41.6932V207.86C41.6932 209.517 43.0363 210.86 44.6932 210.86H49.3826V203.17Z" fill="#FF0000"/>
<path d="M57.072 206.17C57.072 204.514 55.7288 203.17 54.072 203.17H49.3826V210.86H54.072C55.7288 210.86 57.072 209.517 57.072 207.86V206.17Z" fill="#FF0000"/>
<path d="M72.4508 203.17H67.7614C66.1045 203.17 64.7614 204.514 64.7614 206.17V207.86C64.7614 209.517 66.1045 210.86 67.7614 210.86H69.4508C71.1076 210.86 72.4508 209.517 72.4508 207.86V203.17Z" fill="#FF0000"/>
<path d="M95.5189 203.17H87.8296V210.86H92.5189C94.1758 210.86 95.5189 209.517 95.5189 207.86V203.17Z" fill="#FF0000"/>
<path d="M110.898 203.17H103.208V207.86C103.208 209.517 104.551 210.86 106.208 210.86H110.898V203.17Z" fill="#FF0000"/>
<path d="M118.587 206.17C118.587 204.514 117.244 203.17 115.587 203.17H110.898V210.86H118.587V206.17Z" fill="#FF0000"/>
<path d="M141.655 203.17H136.966C135.309 203.17 133.966 204.514 133.966 206.17V210.86H141.655V203.17Z" fill="#FF0000"/>
<path d="M157.034 203.17H149.345V210.86H157.034V203.17Z" fill="#FF0000"/>
<path d="M164.724 203.17H157.034V210.86H164.724V203.17Z" fill="#FF0000"/>
<path d="M180.102 203.17H172.413V210.86H180.102V203.17Z" fill="#FF0000"/>
<path d="M187.792 203.17H180.102V210.86H184.792C186.449 210.86 187.792 209.517 187.792 207.86V203.17Z" fill="#FF0000"/>
<path d="M203.17 203.17H195.481V210.86H203.17V203.17Z" fill="#FF0000"/>
<path d="M210.86 203.17H203.17V210.86H210.86V203.17Z" fill="#FF0000"/>
<path d="M218.549 203.17H210.86V210.86H218.549V203.17Z" fill="#FF0000"/>
<path d="M226.239 203.17H218.549V210.86H226.239V203.17Z" fill="#FF0000"/>
<path d="M233.928 203.17H226.239V210.86H233.928V203.17Z" fill="#FF0000"/>
<path d="M241.617 203.17H233.928V210.86H241.617V203.17Z" fill="#FF0000"/>
<path d="M264.686 203.17H256.996V210.86H264.686V203.17Z" fill="#FF0000"/>
<path d="M272.375 206.17C272.375 204.514 271.032 203.17 269.375 203.17H264.686V210.86H272.375V206.17Z" fill="#FF0000"/>
<path d="M87.8296 210.86H83.1402C81.4833 210.86 80.1402 212.203 80.1402 213.86V218.549H87.8296V210.86Z" fill="#FF0000"/>
<path d="M126.277 210.86H118.587V218.549H126.277V210.86Z" fill="#FF0000"/>
<path d="M133.966 210.86H126.277V218.549H133.966V210.86Z" fill="#FF0000"/>
<path d="M141.655 210.86H133.966V218.549H141.655V210.86Z" fill="#FF0000"/>
<path d="M149.345 210.86H141.655V218.549H149.345V210.86Z" fill="#FF0000"/>
<path d="M172.413 210.86H164.724L164.724 215.549C164.724 217.206 166.067 218.549 167.724 218.549H172.413V210.86Z" fill="#FF0000"/>
<path d="M180.102 210.86H172.413V218.549H180.102V210.86Z" fill="#FF0000"/>
<path d="M203.17 210.86H195.481V215.549C195.481 217.206 196.824 218.549 198.481 218.549H203.17V210.86Z" fill="#FF0000"/>
<path d="M210.86 210.86H203.17V218.549H210.86V210.86Z" fill="#FF0000"/>
<path d="M241.617 210.86H233.928V218.549H241.617V210.86Z" fill="#FF0000"/>
<path d="M264.686 210.86H256.996V215.549C256.996 217.206 258.339 218.549 259.996 218.549H264.686V210.86Z" fill="#FF0000"/>
<path d="M272.375 210.86H264.686V218.549H272.375V210.86Z" fill="#FF0000"/>
<path d="M26.3144 218.549H21.625C19.9681 218.549 18.625 219.892 18.625 221.549V226.239H26.3144V218.549Z" fill="#FF0000"/>
<path d="M34.0038 218.549H26.3144V226.239H34.0038V218.549Z" fill="#FF0000"/>
<path d="M41.6932 218.549H34.0038V226.239H41.6932V218.549Z" fill="#FF0000"/>
<path d="M49.3826 218.549H41.6932V226.239H49.3826V218.549Z" fill="#FF0000"/>
<path d="M57.072 218.549H49.3826V226.239H57.072V218.549Z" fill="#FF0000"/>
<path d="M64.7614 218.549H57.072V226.239H64.7614V218.549Z" fill="#FF0000"/>
<path d="M72.4508 221.549C72.4508 219.892 71.1076 218.549 69.4508 218.549H64.7614V226.239H72.4508V221.549Z" fill="#FF0000"/>
<path d="M87.8296 218.549H80.1402V226.239H87.8296V218.549Z" fill="#FF0000"/>
<path d="M110.898 218.549H106.208C104.551 218.549 103.208 219.892 103.208 221.549V226.239H110.898V218.549Z" fill="#FF0000"/>
<path d="M118.587 218.549H110.898V226.239H118.587V218.549Z" fill="#FF0000"/>
<path d="M126.277 218.549H118.587V226.239H123.277C124.933 226.239 126.277 224.896 126.277 223.239V218.549Z" fill="#FF0000"/>
<path d="M141.655 218.549H133.966V226.239H141.655V218.549Z" fill="#FF0000"/>
<path d="M149.345 218.549H141.655V226.239H149.345V218.549Z" fill="#FF0000"/>
<path d="M180.102 218.549H172.413V226.239H180.102V218.549Z" fill="#FF0000"/>
<path d="M210.86 218.549H203.17V226.239H210.86V218.549Z" fill="#FF0000"/>
<path d="M226.239 221.549C226.239 219.892 224.896 218.549 223.239 218.549H221.549C219.892 218.549 218.549 219.892 218.549 221.549V223.239C218.549 224.895 219.892 226.239 221.549 226.239H223.239C224.895 226.239 226.239 224.896 226.239 223.239V221.549Z" fill="#FF0000"/>
<path d="M241.617 218.549H233.928V226.239H241.617V218.549Z" fill="#FF0000"/>
<path d="M249.307 221.549C249.307 219.892 247.964 218.549 246.307 218.549H241.617V226.239H249.307V221.549Z" fill="#FF0000"/>
<path d="M272.375 218.549H264.686V226.239H272.375V218.549Z" fill="#FF0000"/>
<path d="M26.3144 226.239H18.625V233.928H26.3144V226.239Z" fill="#FF0000"/>
<path d="M72.4508 226.239H64.7614V233.928H72.4508V226.239Z" fill="#FF0000"/>
<path d="M87.8296 226.239H80.1402V233.928H87.8296V226.239Z" fill="#FF0000"/>
<path d="M103.208 226.239H98.5189C96.8621 226.239 95.5189 227.582 95.5189 229.239V230.928C95.5189 232.585 96.8621 233.928 98.5189 233.928H103.208V226.239Z" fill="#FF0000"/>
<path d="M118.587 226.239H110.898V233.928H118.587V226.239Z" fill="#FF0000"/>
<path d="M141.655 226.239H133.966V233.928H141.655V226.239Z" fill="#FF0000"/>
<path d="M157.034 229.239C157.034 227.582 155.691 226.239 154.034 226.239H149.345V233.928H157.034V229.239Z" fill="#FF0000"/>
<path d="M180.102 226.239H172.413V233.928H180.102V226.239Z" fill="#FF0000"/>
<path d="M203.17 226.239H198.481C196.824 226.239 195.481 227.582 195.481 229.239V233.928H203.17V226.239Z" fill="#FF0000"/>
<path d="M210.86 226.239H203.17V233.928H210.86V226.239Z" fill="#FF0000"/>
<path d="M241.617 226.239H233.928V233.928H241.617V226.239Z" fill="#FF0000"/>
<path d="M249.307 226.239H241.617V233.928H249.307V226.239Z" fill="#FF0000"/>
<path d="M256.996 226.239H249.307V233.928H256.996V226.239Z" fill="#FF0000"/>
<path d="M264.686 226.239H256.996V233.928H264.686V226.239Z" fill="#FF0000"/>
<path d="M272.375 226.239H264.686V233.928H269.375C271.032 233.928 272.375 232.585 272.375 230.928V226.239Z" fill="#FF0000"/>
<path d="M26.3144 233.928H18.625V241.617H26.3144V233.928Z" fill="#FF0000"/>
<path d="M41.6932 233.928H37.0038C35.3469 233.928 34.0038 235.271 34.0038 236.928V241.617H41.6932V233.928Z" fill="#FF0000"/>
<path d="M49.3826 233.928H41.6932V241.617H49.3826V233.928Z" fill="#FF0000"/>
<path d="M57.072 236.928C57.072 235.271 55.7288 233.928 54.072 233.928H49.3826V241.617H57.072V236.928Z" fill="#FF0000"/>
<path d="M72.4508 233.928H64.7614V241.617H72.4508V233.928Z" fill="#FF0000"/>
<path d="M87.8296 233.928H80.1402V241.617H87.8296V233.928Z" fill="#FF0000"/>
<path d="M110.898 233.928H103.208V241.617H110.898V233.928Z" fill="#FF0000"/>
<path d="M118.587 233.928H110.898V241.617H118.587V233.928Z" fill="#FF0000"/>
<path d="M133.966 233.928H129.277C127.62 233.928 126.277 235.271 126.277 236.928V241.617H133.966V233.928Z" fill="#FF0000"/>
<path d="M141.655 233.928H133.966V241.617H141.655V233.928Z" fill="#FF0000"/>
<path d="M149.345 233.928H141.655V241.617H146.345C148.002 241.617 149.345 240.274 149.345 238.617V233.928Z" fill="#FF0000"/>
<path d="M164.724 233.928H157.034V238.617C157.034 240.274 158.377 241.617 160.034 241.617H164.724V233.928Z" fill="#FF0000"/>
<path d="M172.413 233.928H164.724V241.617H172.413V233.928Z" fill="#FF0000"/>
<path d="M180.102 233.928H172.413V241.617H180.102V233.928Z" fill="#FF0000"/>
<path d="M203.17 233.928H195.481V241.617H203.17V233.928Z" fill="#FF0000"/>
<path d="M210.86 233.928H203.17V241.617H210.86V233.928Z" fill="#FF0000"/>
<path d="M218.549 233.928H210.86V241.617H218.549V233.928Z" fill="#FF0000"/>
<path d="M226.239 233.928H218.549V241.617H226.239V233.928Z" fill="#FF0000"/>
<path d="M233.928 233.928H226.239V241.617H233.928V233.928Z" fill="#FF0000"/>
<path d="M241.617 233.928H233.928V241.617H241.617V233.928Z" fill="#FF0000"/>
<path d="M249.307 233.928H241.617V241.617H249.307V233.928Z" fill="#FF0000"/>
<path d="M256.996 233.928H249.307V241.617H253.996C255.653 241.617 256.996 240.274 256.996 238.617V233.928Z" fill="#FF0000"/>
<path d="M26.3144 241.617H18.625V249.307H26.3144V241.617Z" fill="#FF0000"/>
<path d="M41.6932 241.617H34.0038V249.307H41.6932V241.617Z" fill="#FF0000"/>
<path d="M49.3826 241.617H41.6932V249.307H49.3826V241.617Z" fill="#FF0000"/>
<path d="M57.072 241.617H49.3826V249.307H57.072V241.617Z" fill="#FF0000"/>
<path d="M72.4508 241.617H64.7614V249.307H72.4508V241.617Z" fill="#FF0000"/>
<path d="M87.8296 241.617H80.1402V246.307C80.1402 247.964 81.4833 249.307 83.1402 249.307H84.8296C86.4864 249.307 87.8296 247.964 87.8296 246.307V241.617Z" fill="#FF0000"/>
<path d="M103.208 241.617H98.5189C96.8621 241.617 95.5189 242.961 95.5189 244.617V246.307C95.5189 247.964 96.8621 249.307 98.5189 249.307H103.208V241.617Z" fill="#FF0000"/>
<path d="M110.898 241.617H103.208V249.307H110.898V241.617Z" fill="#FF0000"/>
<path d="M118.587 241.617H110.898V249.307H118.587V241.617Z" fill="#FF0000"/>
<path d="M126.277 241.617H118.587V249.307H126.277V241.617Z" fill="#FF0000"/>
<path d="M172.413 241.617H164.724L164.724 246.307C164.724 247.964 166.067 249.307 167.724 249.307H172.413V241.617Z" fill="#FF0000"/>
<path d="M180.102 241.617H172.413V249.307H180.102V241.617Z" fill="#FF0000"/>
<path d="M195.481 241.617H190.792C189.135 241.617 187.792 242.961 187.792 244.617V249.307H195.481V241.617Z" fill="#FF0000"/>
<path d="M218.549 241.617H210.86V249.307H218.549V241.617Z" fill="#FF0000"/>
<path d="M226.239 241.617H218.549V249.307H226.239V241.617Z" fill="#FF0000"/>
<path d="M233.928 241.617H226.239V249.307H233.928V241.617Z" fill="#FF0000"/>
<path d="M241.617 241.617H233.928V249.307H241.617V241.617Z" fill="#FF0000"/>
<path d="M26.3144 249.307H18.625V256.996H26.3144V249.307Z" fill="#FF0000"/>
<path d="M41.6932 249.307H34.0038V253.996C34.0038 255.653 35.3469 256.996 37.0038 256.996H41.6932V249.307Z" fill="#FF0000"/>
<path d="M49.3826 249.307H41.6932V256.996H49.3826V249.307Z" fill="#FF0000"/>
<path d="M57.072 249.307H49.3826V256.996H54.072C55.7288 256.996 57.072 255.653 57.072 253.996V249.307Z" fill="#FF0000"/>
<path d="M72.4508 249.307H64.7614V256.996H72.4508V249.307Z" fill="#FF0000"/>
<path d="M126.277 249.307H118.587V256.996H126.277V249.307Z" fill="#FF0000"/>
<path d="M157.034 252.307C157.034 250.65 155.691 249.307 154.034 249.307H152.345C150.688 249.307 149.345 250.65 149.345 252.307V256.996H154.034C155.691 256.996 157.034 255.653 157.034 253.996V252.307Z" fill="#FF0000"/>
<path d="M187.792 249.307H180.102V253.996C180.102 255.653 181.445 256.996 183.102 256.996H187.792V249.307Z" fill="#FF0000"/>
<path d="M195.481 249.307H187.792V256.996H192.481C194.138 256.996 195.481 255.653 195.481 253.996V249.307Z" fill="#FF0000"/>
<path d="M210.86 249.307H206.17C204.514 249.307 203.17 250.65 203.17 252.307V256.996H210.86V249.307Z" fill="#FF0000"/>
<path d="M218.549 249.307H210.86V256.996H218.549V249.307Z" fill="#FF0000"/>
<path d="M226.239 249.307H218.549V256.996H223.239C224.895 256.996 226.239 255.653 226.239 253.996V249.307Z" fill="#FF0000"/>
<path d="M249.307 252.307C249.307 250.65 247.964 249.307 246.307 249.307H241.617V256.996H249.307V252.307Z" fill="#FF0000"/>
<path d="M26.3144 256.996H18.625V264.686H26.3144V256.996Z" fill="#FF0000"/>
<path d="M72.4508 256.996H64.7614V264.686H72.4508V256.996Z" fill="#FF0000"/>
<path d="M118.587 256.996H113.898C112.241 256.996 110.898 258.339 110.898 259.996V261.686C110.898 263.342 112.241 264.686 113.898 264.686H115.587C117.244 264.686 118.587 263.342 118.587 261.686V256.996Z" fill="#FF0000"/>
<path d="M133.966 259.996C133.966 258.339 132.623 256.996 130.966 256.996H126.277V261.686C126.277 263.342 127.62 264.686 129.277 264.686H130.966C132.623 264.686 133.966 263.342 133.966 261.686V259.996Z" fill="#FF0000"/>
<path d="M149.345 256.996H144.655C142.998 256.996 141.655 258.339 141.655 259.996V264.686H149.345V256.996Z" fill="#FF0000"/>
<path d="M210.86 256.996H203.17V264.686H207.86C209.517 264.686 210.86 263.342 210.86 261.686V256.996Z" fill="#FF0000"/>
<path d="M241.617 256.996H236.928C235.271 256.996 233.928 258.339 233.928 259.996V264.686H241.617V256.996Z" fill="#FF0000"/>
<path d="M249.307 256.996H241.617V264.686H246.307C247.964 264.686 249.307 263.342 249.307 261.686V256.996Z" fill="#FF0000"/>
<path d="M26.3144 264.686H18.625V269.375C18.625 271.032 19.9681 272.375 21.625 272.375H26.3144V264.686Z" fill="#FF0000"/>
<path d="M34.0038 264.686H26.3144V272.375H34.0038V264.686Z" fill="#FF0000"/>
<path d="M41.6932 264.686H34.0038V272.375H41.6932V264.686Z" fill="#FF0000"/>
<path d="M49.3826 264.686H41.6932V272.375H49.3826V264.686Z" fill="#FF0000"/>
<path d="M57.072 264.686H49.3826V272.375H57.072V264.686Z" fill="#FF0000"/>
<path d="M64.7614 264.686H57.072V272.375H64.7614V264.686Z" fill="#FF0000"/>
<path d="M72.4508 264.686H64.7614V272.375H69.4508C71.1076 272.375 72.4508 271.032 72.4508 269.375V264.686Z" fill="#FF0000"/>
<path d="M87.8296 267.686C87.8296 266.029 86.4864 264.686 84.8296 264.686H83.1402C81.4833 264.686 80.1402 266.029 80.1402 267.686V269.375C80.1402 271.032 81.4833 272.375 83.1402 272.375H84.8296C86.4864 272.375 87.8296 271.032 87.8296 269.375V267.686Z" fill="#FF0000"/>
<path d="M149.345 264.686H141.655V269.375C141.655 271.032 142.998 272.375 144.655 272.375H146.345C148.002 272.375 149.345 271.032 149.345 269.375V264.686Z" fill="#FF0000"/>
<path d="M180.102 267.686C180.102 266.029 178.759 264.686 177.102 264.686H175.413C173.756 264.686 172.413 266.029 172.413 267.686V269.375C172.413 271.032 173.756 272.375 175.413 272.375H177.102C178.759 272.375 180.102 271.032 180.102 269.375V267.686Z" fill="#FF0000"/>
<path d="M203.17 264.686H198.481C196.824 264.686 195.481 266.029 195.481 267.686V269.375C195.481 271.032 196.824 272.375 198.481 272.375H200.17C201.827 272.375 203.17 271.032 203.17 269.375V264.686Z" fill="#FF0000"/>
<path d="M233.928 264.686H229.239C227.582 264.686 226.239 266.029 226.239 267.686V269.375C226.239 271.032 227.582 272.375 229.239 272.375H233.928V264.686Z" fill="#FF0000"/>
<path d="M241.617 264.686H233.928V272.375H238.617C240.274 272.375 241.617 271.032 241.617 269.375V264.686Z" fill="#FF0000"/>
<path d="M272.375 267.686C272.375 266.029 271.032 264.686 269.375 264.686H267.686C266.029 264.686 264.686 266.029 264.686 267.686V269.375C264.686 271.032 266.029 272.375 267.686 272.375H269.375C271.032 272.375 272.375 271.032 272.375 269.375V267.686Z" fill="#FF0000"/>
</g>
<defs>
<clipPath id="clip0_1_548">
<rect x="0.5" y="0.5" width="290" height="290" rx="17" fill="white"/>
</clipPath>
</defs>
</svg>
